HIERARCHY
ROOT Hips
{
	OFFSET 56.681702 10.372190 57.909302
	CHANNELS 6 Xposition Yposition Zposition Xrotation Yrotation Zrotation
	JOINT spine
	{
		OFFSET 0.000000 -0.393701 6.846367
		CHANNELS 3 Xrotation Yrotation Zrotation
		JOINT spine1
		{
			OFFSET 0.000000 -0.000002 9.496208
			CHANNELS 3 Xrotation Yrotation Zrotation
			JOINT spine2
			{
				OFFSET 0.000000 -0.000001 9.099091
				CHANNELS 3 Xrotation Yrotation Zrotation
				JOINT Neck
				{
					OFFSET 0.000000 -1.113784 23.361198
					CHANNELS 3 Xrotation Yrotation Zrotation
					JOINT Head
					{
						OFFSET 0.000000 -0.000001 7.058022
						CHANNELS 3 Xrotation Yrotation Zrotation
						End Site
						{
							OFFSET 0.000000 5.634188 17.084396
						}
					}
				}
				JOINT RightShoulder
				{
					OFFSET -3.831360 0.533489 9.826309
					CHANNELS 3 Xrotation Yrotation Zrotation
					JOINT RightArm
					{
						OFFSET 0.000000 -0.000002 12.888100
						CHANNELS 3 Xrotation Yrotation Zrotation
						JOINT RightArmRoll
						{
							OFFSET 0.000000 -0.000001 6.506172
							CHANNELS 3 Xrotation Yrotation Zrotation
							JOINT RightForeArm
							{
								OFFSET 0.000000 -0.000003 18.950104
								CHANNELS 3 Xrotation Yrotation Zrotation
								JOINT RightForeArmRoll
								{
									OFFSET 0.000000 -0.000002 7.300934
									CHANNELS 3 Xrotation Yrotation Zrotation
									JOINT RightHand
									{
										OFFSET 0.000000 -0.000002 14.651398
										CHANNELS 3 Xrotation Yrotation Zrotation
										End Site
										{
											OFFSET 0.000000 0.000000 0.100006
										}
									}
								}
							}
						}
					}
				}
				JOINT LeftShoulder
				{
					OFFSET 3.831360 0.533489 9.826309
					CHANNELS 3 Xrotation Yrotation Zrotation
					JOINT LeftArm
					{
						OFFSET 0.000000 -0.000002 12.888100
						CHANNELS 3 Xrotation Yrotation Zrotation
						JOINT LeftArmRoll
						{
							OFFSET 0.000000 -0.000001 6.506172
							CHANNELS 3 Xrotation Yrotation Zrotation
							JOINT LeftForeArm
							{
								OFFSET 0.000000 -0.000003 18.950104
								CHANNELS 3 Xrotation Yrotation Zrotation
								JOINT LeftForeArmRoll
								{
									OFFSET 0.000000 -0.000002 7.300934
									CHANNELS 3 Xrotation Yrotation Zrotation
									JOINT LeftHand
									{
										OFFSET 0.000000 -0.000002 14.651398
										CHANNELS 3 Xrotation Yrotation Zrotation
										End Site
										{
											OFFSET 0.000000 0.000000 0.100006
										}
									}
								}
							}
						}
					}
				}
			}
		}
	}
	JOINT RightUpLeg
	{
		OFFSET -6.068371 0.933477 -1.112782
		CHANNELS 3 Xrotation Yrotation Zrotation
		JOINT RightUpLegRoll
		{
			OFFSET 0.000000 -0.000003 17.179600
			CHANNELS 3 Xrotation Yrotation Zrotation
			JOINT RightLeg
			{
				OFFSET 0.000000 0.000004 -21.274300
				CHANNELS 3 Xrotation Yrotation Zrotation
				JOINT RightLegRoll
				{
					OFFSET 0.000000 -0.000004 21.343903
					CHANNELS 3 Xrotation Yrotation Zrotation
					JOINT RightFoot
					{
						OFFSET 0.000000 -0.000003 17.765198
						CHANNELS 3 Xrotation Yrotation Zrotation
						JOINT RightToeBase
						{
							OFFSET 0.000000 -0.000002 14.850800
							CHANNELS 3 Xrotation Yrotation Zrotation
							End Site
							{
								OFFSET 0.006294 0.829003 7.192139
							}
						}
					}
				}
			}
		}
	}
	JOINT LeftUpLeg
	{
		OFFSET 6.068371 0.933477 -1.112782
		CHANNELS 3 Xrotation Yrotation Zrotation
		JOINT LeftUpLegRoll
		{
			OFFSET 0.000000 -0.000003 17.179699
			CHANNELS 3 Xrotation Yrotation Zrotation
			JOINT LeftLeg
			{
				OFFSET 0.000000 -0.000003 21.274200
				CHANNELS 3 Xrotation Yrotation Zrotation
				JOINT LeftLegRoll
				{
					OFFSET 0.000000 -0.000004 21.541199
					CHANNELS 3 Xrotation Yrotation Zrotation
					JOINT LeftFoot
					{
						OFFSET 0.000000 -0.000003 17.567894
						CHANNELS 3 Xrotation Yrotation Zrotation
						JOINT LeftToeBase
						{
							OFFSET 0.000000 -0.000002 14.850800
							CHANNELS 3 Xrotation Yrotation Zrotation
							End Site
							{
								OFFSET -0.028210 0.829003 7.192139
							}
						}
					}
				}
			}
		}
	}
}
MOTION
Frames: 7
Frame Time: 0.041667
56.853798 3.346422 66.624702 37.583512 -3.444398 -1.659146 2.058212 -0.410511 0.722685 8.124582 -0.785820 1.462660 9.769494 -0.768244 1.471973 46.327503 9.787069 -3.687084 -3.505508 -5.216775 -1.267126 -10.200370 -25.355477 -9.562260 -47.064139 -144.545654 -103.290041 0.000003 -0.000004 0.000001 33.530491 -16.681789 8.569042 -0.000009 -0.000006 -2.999989 -5.000333 -7.998950 0.000188 -3.583681 37.791584 1.737157 -55.184554 142.976405 97.498519 -0.000011 0.000001 0.000007 36.619752 35.513080 -16.058528 -0.000002 -0.000009 2.999989 -5.000157 7.999422 -0.000120 -105.900335 -174.104035 -1.348601 -179.999991 0.000005 -0.399001 115.747254 -3.362200 -4.564371 0.000004 0.000001 1.327161 67.998659 7.191931 1.440026 25.456959 -7.355615 0.000002 -103.736606 163.525958 -3.710184 -0.000006 -0.000005 -0.390926 -67.625915 7.446504 7.754525 -0.000004 0.000001 -1.066080 69.199836 -7.162733 -1.408875 25.456962 7.355615 -0.000001 
56.850197 3.399580 66.543900 37.488730 -3.417917 -1.638187 2.052585 -0.417113 0.727897 8.113454 -0.798568 1.473341 9.758371 -0.780866 1.482800 46.306811 9.701783 -3.667181 -3.517803 -5.148803 -1.272135 -10.255653 -25.388443 -9.646689 -47.094690 -144.475057 -103.442225 0.000001 -0.000003 0.000002 33.639365 -16.638797 8.584363 -0.000009 -0.000007 -2.999993 -5.000334 -7.998952 0.000189 -3.559007 37.768832 1.701101 -55.115966 142.940041 97.428489 -0.000008 0.000002 0.000006 36.735489 35.442541 -16.063574 -0.000001 -0.000009 2.999989 -5.000157 7.999423 -0.000121 -105.944109 -174.059161 -1.319309 -179.999991 0.000006 -0.400995 115.627316 -3.363434 -4.577790 0.000003 0.000001 1.331380 67.994677 7.193396 1.436873 25.456957 -7.355614 0.000002 -103.794130 163.525247 -3.728252 -0.000006 -0.000003 -0.393229 -67.741167 7.398931 7.745124 -0.000004 0.000001 -1.074320 69.180739 -7.163993 -1.407344 25.456957 7.355613 0.000000 
56.855198 3.461592 66.455002 37.391160 -3.389366 -1.618123 2.047356 -0.424282 0.733623 8.103160 -0.812470 1.485074 9.748073 -0.794626 1.494700 46.283981 9.615846 -3.648413 -3.526434 -5.080881 -1.278406 -10.311249 -25.422253 -9.731611 -47.126509 -144.403163 -103.593370 0.000003 -0.000005 0.000001 33.749122 -16.595633 8.599503 -0.000007 -0.000004 -2.999992 -5.000335 -7.998953 0.000188 -3.533627 37.747109 1.664241 -55.048968 142.903868 97.361253 -0.000013 0.000002 0.000005 36.853396 35.371320 -16.068730 -0.000001 -0.000007 2.999988 -5.000157 7.999422 -0.000123 -105.984448 -174.013781 -1.288830 -179.999991 0.000006 -0.403003 115.507433 -3.364966 -4.591157 0.000004 0.000001 1.335580 67.991104 7.194784 1.433777 25.456959 -7.355615 0.000002 -103.849413 163.524510 -3.744543 -0.000007 -0.000005 -0.395539 -67.856276 7.349913 7.734690 -0.000004 0.000001 -1.082740 69.161129 -7.165332 -1.405760 25.456957 7.355616 -0.000000 
56.809395 3.507369 66.368698 37.290934 -3.359189 -1.598984 2.042507 -0.431883 0.739713 8.093628 -0.827267 1.497560 9.738527 -0.809271 1.507356 46.259683 9.529928 -3.630544 -3.532148 -5.013417 -1.285583 -10.366581 -25.456836 -9.816227 -47.160397 -144.329410 -103.744208 0.000001 -0.000003 0.000003 33.859587 -16.552420 8.614346 -0.000007 -0.000006 -2.999991 -5.000334 -7.998949 0.000188 -3.507760 37.726686 1.626898 -54.982821 142.868392 97.295116 -0.000011 0.000002 0.000006 36.973040 35.299831 -16.074126 0.000002 -0.000006 2.999992 -5.000157 7.999421 -0.000122 -106.021570 -173.967937 -1.256678 -179.999991 0.000005 -0.404998 115.387549 -3.367210 -4.605347 0.000004 0.000001 1.339770 67.987751 7.196227 1.430476 25.456955 -7.355616 0.000002 -103.902456 163.523704 -3.760053 -0.000006 -0.000005 -0.397854 -67.971276 7.299613 7.723266 -0.000004 0.000002 -1.091299 69.141117 -7.166708 -1.404208 25.456962 7.355613 -0.000001 
56.820995 3.568450 66.282310 37.188068 -3.327821 -1.580787 2.037998 -0.439792 0.746021 8.084765 -0.842700 1.510491 9.729664 -0.824548 1.520477 46.234452 9.444921 -3.613564 -3.535685 -4.946853 -1.293304 -10.421128 -25.492243 -9.899741 -47.195374 -144.255207 -103.892505 0.000003 -0.000004 0.000003 33.970492 -16.509455 8.628866 -0.000009 -0.000008 -2.999990 -5.000335 -7.998950 0.000190 -3.481597 37.707678 1.589354 -54.918105 142.832984 97.230461 -0.000012 0.000001 0.000007 37.093863 35.228077 -16.079575 0.000001 -0.000004 2.999987 -5.000157 7.999421 -0.000124 -106.055510 -173.921765 -1.223239 -179.999991 0.000005 -0.407006 115.267570 -3.370148 -4.619393 0.000004 0.000001 1.343950 67.984500 7.197636 1.427363 25.456960 -7.355617 0.000002 -103.953389 163.522720 -3.775644 -0.000005 -0.000005 -0.400178 -68.086160 7.248275 7.710976 -0.000004 0.000001 -1.099980 69.120893 -7.168070 -1.402570 25.456957 7.355615 -0.000002 
56.833298 3.632061 66.171700 37.082685 -3.295714 -1.563524 2.033782 -0.447880 0.752397 8.076498 -0.858508 1.523560 9.721403 -0.840199 1.533735 46.209023 9.361482 -3.597271 -3.537790 -4.881584 -1.301202 -10.474310 -25.528215 -9.981318 -47.231779 -144.180744 -104.038336 0.000002 -0.000003 0.000001 34.081582 -16.467045 8.643033 -0.000008 -0.000009 -2.999990 -5.000334 -7.998954 0.000188 -3.455375 37.690247 1.551925 -54.855042 142.796784 97.167685 -0.000011 0.000001 0.000007 37.215324 35.156541 -16.085119 -0.000003 -0.000008 2.999991 -5.000157 7.999425 -0.000122 -106.086642 -173.875361 -1.188287 -179.999991 0.000006 -0.409000 115.147591 -3.373785 -4.635291 0.000004 0.000001 1.348120 67.981351 7.199055 1.424146 25.456957 -7.355615 0.000001 -104.002150 163.521600 -3.789436 -0.000005 -0.000005 -0.402511 -68.201174 7.196039 7.697983 -0.000004 0.000001 -1.108740 69.100553 -7.169422 -1.401038 25.456959 7.355615 -0.000001 
56.827396 3.687643 66.087601 36.974717 -3.263327 -1.547224 2.029828 -0.456018 0.758692 8.068747 -0.874434 1.536479 9.713639 -0.855970 1.546848 46.183844 9.280390 -3.581483 -3.539212 -4.818056 -1.308910 -10.525577 -25.564691 -10.060129 -47.269646 -144.105995 -104.181231 0.000002 -0.000004 0.000002 34.192583 -16.425413 8.656771 -0.000010 -0.000007 -2.999992 -5.000332 -7.998953 0.000189 -3.429263 37.674617 1.514893 -54.792986 142.760379 97.105148 -0.000012 -0.000000 0.000008 37.336836 35.085333 -16.090623 -0.000002 -0.000007 2.999989 -5.000157 7.999421 -0.000119 -106.115089 -173.828847 -1.153249 -179.999991 0.000005 -0.412006 115.027762 -3.376827 -4.649300 0.000004 0.000001 1.352300 67.978209 7.200473 1.421029 25.456957 -7.355616 0.000002 -104.048841 163.520234 -3.803209 -0.000007 -0.000004 -0.404853 -68.316098 7.143191 7.684361 -0.000004 0.000001 -1.117560 69.080123 -7.170829 -1.399520 25.456957 7.355614 -0.000001 
